<?xml version="1.0" standalone="no"?>
<!DOCTYPE svg PUBLIC "-//W3C//DTD SVG 20010904//EN"
 "http://www.w3.org/TR/2001/REC-SVG-20010904/DTD/svg10.dtd">
<svg version="1.0" xmlns="http://www.w3.org/2000/svg"
 width="1536.000000pt" height="1024.000000pt" viewBox="0 0 1536.000000 1024.000000"
 preserveAspectRatio="xMidYMid meet">

<g transform="translate(0.000000,1024.000000) scale(0.100000,-0.100000)"
fill="#000000" stroke="none">
<path d="M0 5120 l0 -5120 7680 0 7680 0 0 5120 0 5120 -7680 0 -7680 0 0
-5120z m4946 4726 c76 -20 171 -74 210 -120 18 -21 43 -63 54 -92 20 -54 40
-185 40 -261 0 -35 3 -42 22 -45 35 -5 44 -55 25 -130 -25 -101 -56 -176 -76
-183 -14 -4 -20 -20 -25 -67 -4 -34 -14 -78 -22 -96 -18 -44 -19 -192 -1 -235
21 -50 62 -92 136 -141 84 -55 151 -84 359 -152 129 -43 176 -54 227 -54 232
0 398 -135 469 -380 32 -112 37 -196 25 -396 l-12 -191 32 -89 c33 -91 53
-238 44 -316 -7 -53 8 -90 91 -215 57 -88 82 -137 111 -225 l38 -113 8 -290
c4 -159 13 -326 19 -370 14 -102 84 -379 102 -403 7 -10 34 -37 60 -61 48 -44
63 -70 119 -206 24 -58 47 -95 87 -137 59 -62 63 -89 17 -110 -41 -18 -90 -1
-150 53 l-55 51 0 -34 c0 -19 7 -79 15 -134 32 -212 12 -334 -55 -334 -26 0
-30 -4 -30 -29 0 -34 -34 -81 -59 -81 -22 0 -46 25 -64 69 -9 20 -17 29 -21
22 -4 -6 -20 -11 -36 -11 -35 0 -62 32 -79 93 -11 39 -16 43 -37 39 -37 -7
-62 23 -85 102 -11 39 -43 139 -70 223 -57 177 -60 214 -23 339 33 113 32 170
-5 328 -37 151 -76 255 -137 361 -75 131 -133 249 -154 316 -27 85 -50 218
-50 288 0 90 -18 165 -71 296 -53 131 -89 258 -89 312 0 52 -15 39 -30 -24
-17 -78 -63 -177 -106 -230 -35 -42 -37 -50 -59 -200 -12 -86 -21 -164 -19
-172 2 -9 11 -47 20 -86 23 -94 24 -266 1 -317 -16 -34 -16 -37 0 -40 19 -3
89 -255 193 -693 101 -424 127 -583 136 -840 8 -218 -10 -366 -72 -615 -41
-165 -46 -197 -46 -295 0 -170 33 -333 137 -680 l48 -160 1 -225 c1 -188 -3
-248 -22 -365 -27 -169 -50 -423 -59 -640 -6 -149 -4 -166 17 -239 20 -66 22
-83 12 -110 -19 -51 -15 -77 26 -162 50 -101 77 -133 174 -201 43 -30 87 -66
98 -80 22 -28 26 -73 10 -103 -12 -22 -159 -80 -204 -80 -18 0 -48 -5 -65 -11
-24 -9 -43 -9 -69 -1 -29 9 -46 8 -82 -4 -35 -12 -53 -13 -88 -4 -65 16 -91
38 -121 98 -22 47 -32 57 -71 71 -88 32 -108 101 -69 240 l22 76 -23 90 c-21
85 -22 94 -8 165 13 68 13 96 -3 265 -28 305 -61 438 -167 670 -78 170 -86
210 -86 425 0 102 2 255 4 340 l4 155 -38 125 c-82 268 -106 371 -115 500 -8
120 -11 132 -76 305 -74 201 -108 300 -131 389 -44 170 -56 340 -31 447 l14
55 -39 -10 c-27 -7 -51 -7 -80 1 -24 6 -44 11 -45 9 -1 -1 5 -24 13 -51 12
-39 15 -81 11 -190 -6 -175 -32 -278 -149 -605 -79 -219 -86 -242 -91 -335 -8
-138 -28 -233 -93 -446 l-56 -184 3 -160 c2 -88 3 -245 3 -350 -1 -227 -11
-274 -102 -470 -33 -72 -69 -161 -81 -199 -56 -183 -93 -530 -72 -679 12 -81
11 -94 -9 -171 l-22 -83 21 -81 c12 -45 21 -97 21 -115 0 -47 -37 -97 -93
-127 -30 -16 -51 -35 -58 -55 -15 -38 -56 -82 -92 -101 -34 -18 -107 -20 -146
-4 -23 9 -38 9 -66 0 -35 -12 -56 -9 -175 20 -71 17 -126 41 -147 66 -47 53
-20 106 95 187 45 31 93 69 107 84 37 39 92 139 106 194 11 41 10 50 -4 73
-22 32 -21 47 4 126 17 53 20 90 20 199 -1 159 -24 440 -51 601 -34 212 -43
318 -37 484 6 175 15 225 96 486 58 190 92 372 92 495 0 106 -9 161 -65 400
-20 83 -41 199 -47 259 -13 123 -7 451 11 556 30 185 98 501 150 705 33 127
71 282 85 345 40 183 53 220 74 220 18 0 18 2 -2 43 -28 56 -29 207 -2 322 16
71 17 90 6 190 -19 166 -28 196 -77 266 -50 71 -76 135 -95 229 l-13 65 -17
-80 c-22 -103 -46 -173 -104 -314 -45 -109 -47 -118 -56 -255 -16 -235 -49
-342 -174 -561 -98 -172 -121 -225 -160 -380 -51 -198 -52 -226 -19 -337 36
-122 36 -206 -1 -303 -28 -74 -68 -200 -80 -250 -15 -65 -47 -125 -71 -131
-12 -3 -27 -3 -32 0 -5 3 -14 -11 -20 -32 -7 -20 -21 -52 -32 -71 -19 -30 -25
-33 -59 -28 -34 4 -38 2 -59 -34 -26 -45 -54 -57 -87 -35 -20 13 -25 25 -25
59 0 41 -1 42 -32 42 -71 0 -88 119 -53 372 9 63 14 118 11 120 -3 3 -30 -17
-61 -45 -64 -59 -111 -74 -150 -48 -38 25 -32 55 24 110 32 31 60 74 81 120
18 39 41 90 52 113 10 23 48 71 83 107 43 44 67 78 74 103 83 314 89 364 100
725 12 375 27 433 178 665 l60 93 7 137 c7 143 21 218 57 300 21 47 21 53 9
225 -7 97 -10 212 -7 255 13 162 72 308 163 404 95 99 205 141 356 138 43 -2
83 2 90 8 7 6 39 19 71 28 110 32 292 103 360 140 76 42 153 114 173 161 7 17
14 69 14 115 2 66 -2 94 -19 132 -12 27 -24 73 -27 103 -6 45 -11 56 -33 67
-52 25 -104 263 -65 301 8 9 20 14 25 11 5 -4 9 18 9 48 0 84 28 223 55 276
44 88 125 152 228 182 76 22 222 24 293 5z m5749 -1 c125 -33 225 -115 262
-216 23 -60 44 -207 36 -255 -4 -28 -1 -34 24 -46 24 -11 28 -20 31 -58 3 -45
-27 -168 -54 -222 -8 -15 -23 -29 -33 -33 -15 -5 -21 -19 -26 -63 -4 -31 -18
-80 -31 -109 -17 -38 -24 -69 -24 -116 0 -115 45 -199 128 -241 158 -80 419
-170 553 -191 207 -32 233 -38 302 -73 124 -62 208 -168 259 -327 26 -79 35
-291 19 -430 -12 -94 -11 -107 8 -168 11 -36 29 -143 41 -239 12 -95 27 -190
35 -210 8 -20 47 -86 87 -145 119 -175 167 -351 168 -608 1 -231 23 -403 80
-620 16 -60 34 -129 40 -153 8 -31 30 -63 78 -116 37 -39 76 -92 86 -116 54
-127 78 -170 125 -224 48 -54 51 -60 38 -80 -36 -54 -98 -42 -181 34 -23 22
-45 38 -48 35 -2 -3 4 -58 13 -122 24 -160 24 -266 -1 -320 -18 -42 -29 -48
-74 -43 -10 1 -15 -3 -12 -9 4 -6 2 -29 -4 -51 -17 -65 -83 -66 -110 -1 -10
26 -15 29 -45 24 -44 -7 -78 28 -96 97 -10 38 -16 47 -25 39 -18 -15 -52 -2
-66 24 -6 12 -26 72 -44 132 -18 61 -46 148 -63 195 -40 112 -42 195 -5 312
22 70 26 94 20 153 -14 161 -82 344 -210 563 -158 271 -194 379 -198 591 l-3
137 -62 125 c-69 140 -90 203 -100 302 -3 37 -8 65 -11 63 -2 -3 -33 -78 -68
-167 -114 -286 -145 -520 -97 -709 18 -68 22 -109 20 -205 -2 -136 10 -198
118 -635 126 -506 140 -590 138 -855 -1 -222 -18 -399 -74 -753 -58 -367 -53
-429 73 -782 89 -248 102 -316 102 -510 0 -151 -4 -180 -37 -340 -40 -192 -68
-377 -92 -602 -22 -217 -21 -244 20 -348 23 -59 35 -106 35 -138 0 -38 7 -59
32 -96 41 -62 87 -91 175 -111 126 -29 164 -89 101 -160 -49 -57 -115 -85
-195 -85 -62 0 -78 -5 -187 -57 -112 -53 -123 -57 -195 -57 -158 0 -241 59
-241 172 0 22 11 75 25 118 30 96 31 126 4 221 l-20 74 22 116 c21 108 22 123
11 237 -19 188 -45 291 -181 710 -74 227 -85 302 -77 516 3 96 12 217 19 268
12 88 12 98 -10 180 -54 204 -116 457 -144 592 -22 106 -49 192 -99 320 -136
349 -205 627 -186 754 6 41 46 106 64 106 4 0 7 -60 8 -133 0 -108 5 -152 27
-242 34 -137 75 -262 142 -435 29 -74 61 -162 71 -194 16 -50 20 -55 25 -35
14 50 8 122 -36 391 -50 309 -77 444 -107 533 -25 74 -27 76 -82 105 -25 12
-70 45 -101 73 -56 49 -56 50 -71 28 -19 -26 -111 -96 -140 -105 -71 -22 -101
-127 -184 -639 -36 -223 -51 -402 -33 -383 10 9 86 205 145 371 97 273 142
498 121 603 -6 29 -7 55 -3 57 10 6 47 -36 59 -68 41 -108 -24 -398 -176 -787
-35 -91 -73 -205 -83 -255 -28 -133 -94 -409 -139 -585 l-41 -155 15 -114 c9
-63 18 -173 21 -245 10 -199 -9 -305 -111 -619 -142 -436 -180 -666 -140 -847
18 -84 18 -143 0 -204 -21 -70 -19 -126 11 -224 52 -169 11 -243 -151 -273
-82 -15 -159 2 -268 59 -78 40 -98 46 -175 52 -98 8 -142 23 -189 67 -82 77
-36 158 100 178 60 9 99 35 154 103 37 46 43 59 43 101 0 27 13 85 30 134 26
75 30 101 30 192 0 138 -50 525 -97 756 -34 169 -38 198 -38 349 0 198 7 234
110 545 79 238 105 343 105 429 0 31 -16 147 -35 258 -75 443 -80 490 -80 788
0 318 -1 311 106 747 127 518 149 635 149 780 0 101 4 142 22 202 49 167 15
404 -101 698 -37 95 -71 170 -74 166 -4 -3 -7 -25 -7 -48 0 -71 -37 -190 -98
-317 l-60 -123 -5 -145 c-7 -202 -40 -305 -164 -519 -149 -257 -187 -343 -229
-515 -30 -128 -30 -165 2 -257 44 -124 39 -193 -23 -374 -28 -82 -59 -175 -68
-205 -9 -30 -22 -61 -28 -69 -16 -19 -50 -30 -63 -20 -7 6 -15 -8 -23 -41 -18
-69 -85 -124 -107 -89 -4 8 -12 1 -22 -17 -23 -45 -43 -64 -68 -64 -35 0 -54
26 -54 76 0 41 -2 44 -19 35 -28 -15 -68 20 -82 72 -12 45 -7 175 12 282 6 34
9 79 7 100 l-3 40 -58 -53 c-50 -46 -62 -52 -100 -52 -81 0 -88 40 -21 112 25
27 59 79 75 116 59 131 75 158 139 228 l65 70 29 120 c75 314 96 453 96 647 0
278 54 480 179 666 35 51 69 108 77 126 7 18 23 107 34 199 12 92 30 199 42
239 24 86 24 84 8 217 -36 297 40 545 205 669 97 73 150 92 365 126 176 28
549 162 621 223 42 34 67 88 79 170 9 57 8 76 -5 113 -34 92 -45 133 -45 171
0 25 -5 38 -13 38 -30 0 -48 30 -73 118 -31 116 -30 192 4 207 19 8 22 17 22
65 0 131 38 260 94 326 43 49 125 99 196 118 73 19 211 20 285 1z"/>
<path d="M4723 9820 c-118 -22 -215 -86 -259 -173 -48 -94 -66 -270 -38 -374
7 -27 -16 -32 -36 -8 -21 25 -30 17 -30 -27 1 -65 40 -172 65 -176 31 -6 36
-15 50 -96 21 -120 106 -230 223 -288 69 -34 178 -32 247 4 116 60 198 171
211 283 9 84 13 93 37 97 14 2 28 16 39 39 23 46 42 143 34 166 -7 17 -8 17
-20 1 -7 -10 -23 -18 -36 -18 -19 0 -22 4 -17 28 25 126 13 271 -30 355 -13
27 -44 68 -68 92 -79 76 -242 118 -372 95z"/>
<path d="M4516 8662 c1 -122 12 -178 61 -302 30 -74 69 -140 83 -140 6 0 10
13 10 28 0 48 -131 516 -148 526 -4 2 -7 -48 -6 -112z"/>
<path d="M5101 8754 c-17 -38 -131 -489 -131 -520 0 -22 2 -25 15 -14 25 21
72 111 106 205 28 80 33 105 37 223 4 132 -2 159 -27 106z"/>
<path d="M4560 8725 c0 -4 24 -84 54 -178 70 -221 93 -329 78 -362 -8 -17 -8
-25 -1 -25 6 0 34 -22 63 -50 59 -56 86 -62 110 -25 9 14 34 37 56 51 33 22
38 29 30 44 -17 32 -11 65 55 302 36 127 65 235 65 239 0 5 -30 -13 -67 -38
-65 -46 -69 -47 -152 -51 -48 -2 -103 0 -124 6 -20 6 -37 10 -37 9 0 -1 7 -20
15 -42 8 -22 14 -51 14 -65 0 -15 -8 0 -19 36 -16 49 -29 68 -67 100 -55 46
-73 58 -73 49z m240 -177 c-1 -35 -3 -40 -11 -25 -10 17 -5 67 6 67 3 0 5 -19
5 -42z m58 9 c2 -15 -1 -34 -6 -43 -8 -13 -11 -7 -13 29 -4 50 13 62 19 14z"/>
<path d="M4449 8514 c-83 -90 -221 -156 -438 -211 -74 -18 -136 -35 -138 -37
-2 -2 15 -11 39 -21 78 -31 211 -55 341 -62 l127 -6 0 41 c0 84 69 283 102
295 9 3 10 8 2 16 -7 8 -17 4 -35 -15z"/>
<path d="M5147 8533 c-13 -12 -7 -32 7 -27 8 3 21 -4 29 -18 28 -43 77 -205
77 -252 l0 -46 124 0 c69 0 157 7 198 15 97 19 227 62 208 69 -8 2 -62 15
-120 27 -213 44 -351 102 -439 183 -60 56 -72 62 -84 49z"/>
<path d="M5160 8403 c-1 -57 -3 -65 -13 -51 -12 15 -17 11 -44 -35 -17 -29
-51 -74 -75 -102 -28 -32 -36 -46 -23 -41 11 5 60 11 108 15 61 4 91 11 98 21
20 31 -13 238 -42 255 -5 4 -9 -23 -9 -62z"/>
<path d="M4451 8423 c-37 -140 -42 -187 -24 -212 11 -16 23 -21 46 -19 19 2
31 8 30 16 -4 17 12 15 55 -7 20 -10 53 -22 72 -26 l35 -8 -45 49 c-25 27 -55
65 -67 84 -12 19 -31 41 -42 48 -17 10 -21 22 -21 62 0 62 -24 70 -39 13z"/>
<path d="M3693 8235 c-174 -38 -308 -174 -357 -362 -21 -81 -20 -141 4 -241
31 -130 58 -170 107 -158 39 10 214 191 320 332 77 101 113 138 215 221 67 54
122 103 122 108 1 6 -35 19 -79 31 -44 11 -112 35 -152 52 -79 35 -90 36 -180
17z"/>
<path d="M5765 8215 c-44 -19 -111 -42 -150 -52 -38 -10 -70 -24 -70 -30 0 -7
43 -44 95 -84 131 -99 139 -108 248 -249 183 -239 286 -339 338 -326 35 9 72
92 91 204 13 78 13 95 -1 165 -40 203 -167 344 -351 392 -81 21 -108 18 -200
-20z"/>
<path d="M4265 8150 c-63 -13 -92 -27 -170 -80 -94 -65 -215 -190 -251 -260
-24 -46 -28 -67 -28 -125 0 -58 6 -82 34 -140 40 -85 149 -199 227 -239 150
-76 368 -75 569 3 103 40 131 69 144 147 17 103 12 366 -9 493 -22 129 -36
151 -110 175 -98 33 -307 46 -406 26z"/>
<path d="M5045 8144 c-130 -29 -159 -59 -180 -189 -18 -108 -21 -489 -4 -532
26 -70 131 -128 288 -157 234 -45 406 0 547 143 90 91 139 190 139 280 0 96
-41 167 -161 279 -94 90 -172 143 -246 169 -63 23 -293 27 -383 7z"/>
<path d="M5893 7725 c16 -57 17 -166 3 -315 -17 -178 -12 -306 19 -425 28
-112 184 -381 246 -428 31 -23 63 -16 81 16 21 38 24 453 4 577 -26 163 -87
278 -236 445 -35 39 -76 88 -93 110 -16 22 -27 31 -24 20z"/>
<path d="M3697 7663 c-26 -32 -76 -91 -112 -132 -43 -49 -81 -107 -115 -175
-67 -137 -80 -216 -80 -485 1 -226 8 -283 38 -313 18 -19 21 -19 50 -4 37 19
73 65 140 177 141 236 169 375 137 694 -10 101 -14 195 -10 232 4 35 5 63 2
63 -2 0 -25 -26 -50 -57z"/>
<path d="M3786 7575 c12 -186 63 -466 115 -622 22 -68 76 -150 89 -137 10 11
31 128 37 216 4 50 0 86 -17 145 -37 132 -48 157 -101 219 -56 67 -96 141
-115 217 -13 51 -13 51 -8 -38z"/>
<path d="M5856 7622 c-12 -62 -67 -167 -126 -239 -45 -54 -55 -75 -78 -160
-21 -80 -25 -116 -23 -198 2 -83 21 -198 34 -211 7 -7 64 81 81 125 53 136
132 573 124 684 l-3 42 -9 -43z"/>
<path d="M3301 7545 c-1 -60 2 -140 5 -177 l7 -67 40 55 39 56 -30 66 c-17 37
-38 92 -46 122 l-15 55 0 -110z"/>
<path d="M6335 7613 c-4 -21 -20 -72 -36 -113 -16 -41 -29 -81 -29 -88 0 -15
60 -102 70 -102 3 0 7 77 9 170 1 94 1 170 -2 170 -3 0 -8 -17 -12 -37z"/>
<path d="M3422 7405 c-59 -51 -134 -169 -163 -256 -22 -67 -24 -90 -23 -239 0
-173 17 -310 38 -310 20 0 55 30 74 63 15 28 17 57 14 242 -4 246 7 311 68
443 22 47 39 87 37 89 -2 1 -22 -13 -45 -32z"/>
<path d="M6182 7433 c94 -195 110 -278 106 -563 -3 -152 -1 -179 15 -207 21
-39 64 -70 77 -57 36 36 48 403 17 514 -28 102 -72 185 -129 246 -48 51 -96
89 -86 67z"/>
<path d="M4010 7265 c0 -35 46 -107 79 -124 36 -20 90 -12 152 22 65 36 73 47
31 47 -43 0 -135 27 -202 58 l-60 29 0 -32z"/>
<path d="M4595 7264 c-55 -19 -119 -39 -143 -45 -40 -9 -46 -15 -70 -67 -22
-47 -27 -71 -27 -139 0 -72 3 -85 22 -104 l22 -22 89 46 c49 25 129 58 178 72
101 29 120 43 134 97 13 46 -10 144 -42 177 -25 27 -44 26 -163 -15z"/>
<path d="M4887 7282 c-25 -27 -47 -99 -47 -152 0 -62 34 -107 88 -115 61 -10
183 -54 255 -93 61 -33 68 -35 83 -21 28 29 36 93 19 170 -20 100 -41 131 -95
147 -25 7 -92 28 -150 47 -121 40 -131 41 -153 17z"/>
<path d="M5564 7263 c-38 -18 -99 -38 -135 -44 -35 -6 -70 -13 -78 -15 -21 -7
74 -72 115 -80 85 -16 186 74 172 153 -3 18 -7 18 -74 -14z"/>
<path d="M4258 7146 c-26 -18 -68 -39 -92 -46 -38 -10 -49 -10 -77 4 -18 9
-36 16 -41 16 -9 0 -11 -84 -1 -119 5 -20 10 -23 43 -18 49 6 96 30 92 46 -2
10 8 12 40 7 27 -4 52 -1 68 7 32 16 55 82 41 114 -14 30 -17 29 -73 -11z"/>
<path d="M5317 7173 c-4 -3 -7 -26 -7 -50 0 -59 36 -98 82 -89 40 8 81 28 85
42 2 7 -15 23 -39 36 -24 14 -59 34 -79 46 -20 12 -39 19 -42 15z"/>
<path d="M5541 7097 c-30 -18 -58 -42 -62 -55 -7 -19 -3 -26 23 -42 37 -22 83
-34 98 -25 11 7 14 155 3 154 -5 0 -32 -15 -62 -32z"/>
<path d="M4131 6962 c-59 -29 -76 -44 -82 -66 -6 -22 -5 -27 7 -22 22 9 71
-16 138 -68 65 -51 97 -57 120 -24 35 50 10 208 -32 208 -11 0 -32 2 -48 5
-21 4 -50 -5 -103 -33z"/>
<path d="M5365 6990 c-39 -15 -50 -40 -50 -109 0 -73 21 -121 54 -121 10 0 49
25 87 55 38 30 86 60 107 67 59 18 49 33 -54 82 -76 36 -107 42 -144 26z"/>
<path d="M4630 6956 c-177 -74 -261 -133 -276 -192 -10 -38 5 -109 30 -146 19
-29 27 -33 66 -32 73 1 263 24 293 36 46 18 61 60 65 184 4 108 3 111 -23 142
-33 40 -75 42 -155 8z"/>
<path d="M4859 6954 c-22 -24 -24 -33 -24 -137 0 -161 27 -207 120 -207 20 0
86 -7 147 -16 84 -12 116 -14 135 -5 55 25 72 158 29 222 -28 41 -143 106
-258 145 -91 31 -118 30 -149 -2z"/>
<path d="M5525 6838 c-22 -11 -61 -37 -87 -57 -25 -20 -59 -43 -76 -52 -49
-27 -83 -169 -48 -198 18 -15 71 10 141 68 27 22 70 48 96 56 56 19 69 43 69
125 0 48 -4 61 -19 70 -26 13 -29 13 -76 -12z"/>
<path d="M4029 6828 c-13 -24 -6 -106 11 -139 7 -11 28 -27 48 -36 20 -8 61
-32 91 -53 31 -20 76 -47 100 -59 55 -28 64 -19 57 61 -5 69 -31 118 -72 137
-16 7 -47 28 -69 46 -83 67 -145 83 -166 43z"/>
<path d="M3167 6697 c-133 -201 -187 -415 -187 -740 0 -201 -12 -298 -62 -501
l-41 -170 -76 -81 c-65 -70 -82 -96 -120 -184 -24 -56 -61 -124 -83 -152 -21
-27 -36 -54 -33 -59 3 -6 20 -10 38 -10 26 0 42 11 92 64 66 70 78 78 148 95
62 15 93 35 128 85 16 21 29 35 29 29 0 -19 -61 -94 -91 -112 -17 -11 -51 -24
-75 -31 -24 -7 -48 -18 -53 -24 -13 -16 -44 -317 -39 -384 4 -59 24 -113 45
-119 22 -8 40 52 52 177 13 126 24 171 33 134 2 -11 -4 -80 -13 -154 -27 -207
-24 -260 11 -260 42 0 66 68 90 263 15 123 29 172 42 159 8 -8 3 -57 -17 -167
-26 -142 -27 -158 -12 -172 22 -23 45 -9 67 39 20 46 50 200 50 259 0 44 23
79 41 62 9 -9 6 -33 -15 -107 -14 -53 -26 -102 -26 -110 0 -16 27 -29 41 -20
16 9 36 56 49 114 7 30 32 115 56 187 56 169 58 229 13 359 -19 56 -31 110
-31 144 -1 97 96 410 164 530 17 30 12 27 -31 -19 -71 -76 -124 -184 -159
-324 -31 -120 -54 -171 -75 -164 -23 8 -10 93 30 189 22 51 47 114 57 140 10
26 51 95 92 152 98 138 111 177 131 411 24 271 24 269 -8 273 -20 2 -32 -4
-47 -25 -51 -72 -122 -292 -162 -503 -51 -266 -85 -425 -88 -409 -1 8 13 91
33 184 42 205 44 233 4 100 -33 -110 -124 -394 -141 -437 -10 -27 -31 -37 -42
-19 -3 5 6 35 20 66 68 154 172 521 214 754 30 162 35 317 16 436 -9 54 -18
100 -20 102 -2 2 -19 -21 -39 -50z"/>
<path d="M6436 6719 c-31 -191 -33 -274 -11 -429 31 -215 184 -763 241 -859
21 -36 13 -71 -13 -50 -9 8 -23 30 -31 49 -16 39 -101 313 -133 430 -12 44
-24 78 -26 76 -2 -2 7 -66 22 -141 14 -76 25 -145 23 -154 -2 -9 -12 29 -22
84 -49 271 -70 367 -102 478 -38 132 -116 307 -137 307 -7 0 -21 -6 -31 -13
-16 -12 -16 -19 -6 -75 6 -34 15 -134 20 -222 13 -220 11 -215 142 -407 68
-100 121 -216 157 -346 27 -94 27 -117 1 -117 -10 0 -23 8 -28 18 -15 29 -63
222 -58 231 9 14 -79 167 -133 232 -28 33 -51 58 -51 55 0 -4 11 -28 24 -54
78 -155 146 -396 146 -515 0 -35 -11 -82 -32 -138 -45 -122 -43 -187 10 -349
23 -69 48 -156 57 -195 18 -78 38 -115 61 -115 26 0 27 31 4 131 -13 54 -21
102 -17 105 17 17 35 -9 42 -58 25 -195 45 -269 79 -297 44 -37 59 28 32 144
-21 89 -31 213 -17 199 7 -6 17 -42 22 -80 40 -268 55 -326 89 -344 13 -7 22
-4 36 11 17 19 17 25 1 157 -28 234 -30 262 -19 262 13 0 18 -28 32 -180 8
-94 14 -118 31 -135 20 -20 20 -20 35 0 36 49 41 124 19 280 -8 55 -15 126
-15 158 0 37 -4 59 -12 61 -109 31 -162 66 -195 126 -13 25 -16 34 -6 20 45
-63 98 -96 185 -114 14 -3 39 -20 55 -38 85 -96 100 -108 136 -108 20 0 38 4
41 8 2 4 -13 30 -35 57 -21 28 -55 91 -75 142 -41 107 -83 173 -131 211 -47
38 -67 73 -96 177 -60 212 -68 266 -77 545 -12 378 -44 517 -161 711 -63 106
-66 109 -73 68z m81 -1121 c-3 -8 -6 -5 -6 6 -1 11 2 17 5 13 3 -3 4 -12 1
-19z"/>
<path d="M6027 6643 c18 -49 27 -104 35 -198 12 -163 28 -242 68 -339 34 -81
95 -182 125 -206 17 -14 18 -13 11 5 -41 107 -58 200 -67 348 -8 146 -22 237
-36 237 -6 0 4 -200 12 -255 5 -28 4 -28 -5 -7 -5 13 -14 78 -19 144 -8 109
-11 123 -38 161 -17 23 -47 72 -67 110 -21 37 -39 67 -41 67 -1 0 9 -30 22
-67z"/>
<path d="M3572 6596 l-62 -95 -11 -108 c-6 -59 -13 -110 -16 -113 -3 -3 -3 44
1 105 4 78 3 106 -5 98 -6 -6 -14 -82 -19 -179 -8 -173 -26 -268 -69 -366 -23
-54 -17 -61 21 -20 61 64 123 198 153 327 8 34 19 122 24 196 7 85 17 155 30
192 11 31 19 57 18 57 -1 0 -30 -43 -65 -94z"/>
<path d="M4040 6607 c0 -18 7 -56 15 -85 14 -45 26 -59 105 -126 126 -105 170
-111 170 -22 0 62 -18 86 -106 146 -45 30 -101 70 -124 88 -24 17 -47 32 -52
32 -4 0 -8 -15 -8 -33z"/>
<path d="M5529 6602 c-24 -21 -78 -62 -120 -90 -56 -37 -80 -60 -88 -83 -23
-68 -8 -119 37 -119 20 0 55 23 124 79 53 44 99 84 102 90 9 13 23 135 18 149
-7 21 -28 13 -73 -26z"/>
<path d="M6275 6587 c-6 -48 -4 -60 23 -108 17 -30 45 -90 63 -134 17 -44 33
-82 36 -85 2 -2 2 25 -1 60 -3 36 -8 103 -12 150 l-6 85 -48 43 -49 42 -6 -53z"/>
<path d="M3313 6588 c-40 -42 -41 -45 -47 -133 -4 -49 -9 -112 -12 -140 -5
-56 -9 -63 58 85 21 46 48 95 60 107 19 20 19 26 8 72 -7 28 -15 51 -19 51 -4
0 -25 -19 -48 -42z"/>
<path d="M4570 6565 c-173 -28 -206 -54 -204 -158 1 -64 17 -109 51 -139 39
-36 307 -53 350 -23 30 21 43 74 43 177 0 82 -2 90 -28 119 -35 39 -86 45
-212 24z"/>
<path d="M4880 6568 c-45 -24 -60 -110 -40 -233 7 -46 16 -66 37 -84 27 -23
30 -24 159 -18 81 4 146 12 168 21 43 18 67 61 73 136 7 75 -14 121 -65 143
-77 34 -292 56 -332 35z"/>
<path d="M5553 6405 c-19 -26 -64 -62 -110 -91 -86 -52 -103 -69 -132 -130
-46 -97 -73 -396 -41 -459 30 -60 50 -49 196 102 73 76 141 153 150 172 15 31
15 43 0 161 -9 70 -16 161 -16 203 0 42 -3 78 -7 80 -5 3 -22 -15 -40 -38z"/>
<path d="M4046 6333 c-4 -60 -12 -143 -18 -186 -12 -92 -7 -137 22 -175 11
-15 76 -82 143 -149 128 -129 148 -140 183 -102 44 49 7 390 -54 489 -17 28
-53 63 -97 93 -39 26 -90 68 -115 92 -25 25 -48 45 -52 45 -3 0 -9 -48 -12
-107z"/>
<path d="M4413 6190 c-28 -25 -30 -69 -8 -196 38 -216 97 -417 163 -554 39
-80 59 -107 131 -177 84 -83 91 -110 13 -53 -23 16 -74 63 -115 105 -75 76
-99 91 -90 55 7 -25 -16 -122 -28 -115 -13 9 -47 -67 -65 -141 l-15 -66 50
-152 c27 -83 64 -198 81 -256 18 -58 35 -109 40 -113 22 -24 -17 195 -69 388
-22 80 -30 131 -29 185 l1 75 7 -75 c4 -41 24 -134 43 -205 62 -220 69 -271
74 -513 3 -123 7 -221 9 -219 3 2 20 56 38 118 65 222 82 405 51 579 -8 47
-15 88 -15 92 0 4 27 -4 60 -18 75 -30 105 -30 181 1 50 20 60 22 55 8 -4 -9
-14 -57 -22 -107 -27 -151 -10 -318 52 -532 50 -174 53 -171 52 46 -1 222 10
301 73 529 44 161 50 254 24 351 -8 30 -14 64 -14 75 0 11 9 -14 20 -55 31
-116 22 -257 -26 -425 -23 -81 -39 -158 -41 -205 l-4 -75 17 50 c9 28 45 138
81 245 75 227 75 232 13 387 -23 56 -41 108 -41 116 0 26 -20 30 -21 5 -1 -16
-3 -18 -6 -6 -2 9 1 26 7 37 6 12 8 21 5 21 -3 0 -53 -45 -111 -100 -101 -96
-155 -136 -167 -123 -4 3 33 44 82 92 96 95 136 160 190 315 67 191 132 526
112 579 -17 45 -44 51 -191 39 -199 -16 -207 -25 -220 -239 -5 -81 -10 -240
-11 -353 -1 -113 -5 -236 -9 -275 -5 -49 -8 5 -9 175 -1 135 -6 325 -10 422
-6 156 -9 181 -27 205 -34 47 -77 61 -214 68 -118 6 -126 5 -147 -15z"/>
<path d="M4780 6192 c0 -5 11 -15 25 -22 20 -10 27 -11 40 0 8 7 12 16 9 21
-7 11 -74 12 -74 1z"/>
<path d="M4020 5914 c1 -14 54 -79 68 -82 9 -2 10 3 3 15 -13 24 -71 79 -71
67z"/>
<path d="M5587 5872 c-30 -31 -34 -44 -13 -36 16 6 50 53 44 60 -3 2 -17 -9
-31 -24z"/>
<path d="M3952 5663 c-96 -351 -201 -826 -187 -842 5 -5 226 439 277 555 39
92 42 105 41 184 -1 90 -22 189 -54 252 -11 21 -21 38 -23 38 -2 0 -26 -84
-54 -187z"/>
<path d="M5621 5808 c-22 -53 -50 -161 -58 -227 -8 -73 27 -164 192 -496 160
-321 157 -319 104 -50 -26 127 -77 338 -181 738 -11 42 -25 77 -30 77 -5 0
-17 -19 -27 -42z"/>
<path d="M4080 5815 c0 -2 8 -26 19 -52 10 -26 24 -73 32 -103 l13 -55 12 40
c22 70 17 100 -20 139 -29 31 -56 46 -56 31z"/>
<path d="M5530 5794 c-19 -13 -39 -36 -44 -50 -6 -19 -11 -23 -17 -13 -4 7
-11 11 -14 8 -3 -4 7 -34 23 -67 l29 -61 30 87 c16 48 33 95 37 105 11 23 -2
21 -44 -9z"/>
<path d="M4186 5718 c-32 -114 -32 -178 0 -370 33 -198 88 -413 157 -613 31
-88 84 -241 118 -340 60 -171 63 -186 68 -300 l6 -120 20 55 c24 68 25 255 1
400 -14 84 -72 306 -135 515 -43 141 -51 200 -51 389 l0 183 -30 60 c-20 40
-49 77 -84 107 -58 50 -65 53 -70 34z"/>
<path d="M4405 5709 c-4 -13 -16 -34 -28 -46 l-20 -23 36 -54 c34 -51 107
-117 95 -85 -3 7 -18 57 -33 109 -33 118 -40 131 -50 99z"/>
<path d="M5197 5627 c-15 -50 -28 -100 -27 -110 0 -28 35 -1 77 61 l37 53 -24
45 c-14 24 -27 44 -30 44 -3 0 -18 -42 -33 -93z"/>
<path d="M5404 5692 c-46 -43 -81 -93 -94 -137 -6 -22 -15 -134 -20 -250 l-8
-210 -56 -173 c-94 -292 -124 -420 -137 -593 -11 -155 -8 -230 13 -304 20 -70
26 -60 27 47 2 141 24 227 146 563 164 454 248 916 191 1043 -10 23 -22 42
-25 42 -3 0 -20 -13 -37 -28z"/>
<path d="M6450 5575 c0 -22 63 -209 67 -198 6 17 -36 168 -53 190 -7 10 -14
13 -14 8z"/>
<path d="M3165 5536 c-16 -38 -36 -126 -34 -155 1 -24 18 22 40 108 21 82 18
105 -6 47z"/>
<path d="M5225 5468 c-52 -67 -57 -76 -53 -113 3 -23 24 -81 47 -130 40 -84
44 -88 53 -65 6 14 8 84 6 165 -3 77 -1 156 3 175 4 19 6 36 4 38 -1 2 -29
-30 -60 -70z"/>
<path d="M4382 5368 c-1 -79 0 -162 3 -185 l6 -43 51 101 c49 97 50 102 38
141 -6 23 -30 61 -53 85 l-42 44 -3 -143z"/>
<path d="M4040 5283 c-124 -279 -158 -384 -187 -582 -14 -98 -14 -133 -4 -245
22 -251 67 -440 129 -537 l36 -57 28 35 c15 19 30 52 34 72 10 59 30 128 79
268 82 234 94 442 40 697 -13 65 -36 184 -50 265 -33 190 -35 201 -44 201 -4
0 -32 -53 -61 -117z"/>
<path d="M5520 5268 c-12 -73 -32 -183 -45 -243 -34 -161 -48 -313 -42 -450 8
-153 28 -247 87 -410 26 -71 53 -154 60 -182 12 -51 42 -103 60 -103 5 0 20
19 34 43 31 51 32 48 6 -21 -26 -68 -26 -158 -1 -191 18 -24 18 -23 23 105 4
85 13 155 26 204 58 211 88 448 78 616 -7 126 -22 209 -61 332 -36 114 -180
432 -196 432 -3 0 -16 -60 -29 -132z"/>
<path d="M3821 4852 c-70 -137 -91 -250 -91 -494 0 -163 18 -312 57 -458 41
-158 54 -212 67 -285 l13 -70 29 60 c28 58 29 64 28 210 0 137 -4 162 -37 297
-20 81 -44 189 -53 240 -22 122 -22 366 0 463 8 38 13 71 11 73 -2 2 -13 -14
-24 -36z"/>
<path d="M5814 4863 c49 -169 33 -418 -50 -753 -25 -102 -37 -178 -41 -257 -5
-102 -3 -119 20 -195 14 -46 33 -92 41 -103 14 -19 15 -17 16 26 0 26 25 144
55 262 64 256 81 401 71 629 -8 166 -21 231 -71 336 -31 67 -53 96 -41 55z"/>
<path d="M4227 4820 c14 -77 8 -348 -10 -460 -9 -58 -35 -159 -58 -225 -54
-160 -63 -293 -29 -490 45 -271 62 -315 123 -315 119 0 193 184 217 539 19
276 3 353 -169 800 -39 101 -73 187 -76 190 -3 3 -2 -15 2 -39z"/>
<path d="M5356 4678 c-160 -434 -176 -495 -176 -681 0 -212 32 -429 79 -532
65 -141 176 -178 216 -71 16 44 46 211 65 368 16 124 3 220 -50 379 -50 149
-64 257 -65 511 0 115 0 208 -1 208 -1 0 -31 -82 -68 -182z"/>
<path d="M3953 3813 l0 -131 32 34 c25 27 40 34 69 34 l36 0 0 92 0 92 -44
-67 c-42 -63 -44 -65 -49 -39 -3 15 -14 47 -24 71 l-19 44 -1 -130z"/>
<path d="M5560 3858 c0 -46 4 -88 8 -94 4 -6 24 -14 45 -17 33 -5 37 -3 37 16
0 26 -70 177 -82 177 -4 0 -8 -37 -8 -82z"/>
<path d="M5586 3705 c-15 -15 -20 -35 -57 -240 -33 -180 -34 -195 -8 -281 24
-82 59 -134 89 -134 51 0 116 96 155 229 l22 75 13 -35 14 -34 4 34 c5 47 -6
99 -23 108 -7 5 -25 40 -40 78 -32 87 -97 188 -130 203 -19 9 -27 8 -39 -3z"/>
<path d="M3980 3656 c-23 -30 -57 -92 -76 -137 -19 -46 -40 -87 -46 -91 -16
-9 -24 -128 -9 -128 6 0 16 10 20 23 9 21 9 21 16 -8 25 -110 59 -186 103
-233 61 -65 105 -34 149 106 24 79 25 90 14 141 -6 31 -23 117 -36 193 -14 75
-30 148 -36 162 -20 43 -52 34 -99 -28z"/>
<path d="M4390 3360 c-14 -27 -53 -180 -47 -186 2 -3 19 40 37 96 31 95 35
137 10 90z"/>
<path d="M5250 3364 c0 -14 48 -152 49 -139 1 17 -26 111 -37 131 -6 11 -12
14 -12 8z"/>
<path d="M4340 3315 c-9 -8 -43 -25 -75 -38 l-60 -23 -28 -80 c-15 -43 -41
-110 -59 -148 -29 -65 -30 -72 -19 -115 16 -58 38 -86 58 -69 8 6 46 65 84
130 58 98 73 132 85 196 8 42 19 92 25 110 13 41 8 57 -11 37z"/>
<path d="M5300 3288 c45 -190 77 -267 172 -405 35 -52 54 -54 74 -8 22 53 17
109 -15 173 -15 31 -38 87 -50 124 -24 71 -56 108 -95 108 -11 0 -36 9 -54 20
-18 11 -34 20 -36 20 -2 0 0 -15 4 -32z"/>
<path d="M3850 3235 c-17 -21 -8 -83 30 -201 16 -51 40 -147 52 -213 13 -67
26 -121 30 -121 19 0 72 221 63 262 -4 16 -26 51 -50 78 -25 28 -53 76 -69
116 -35 93 -40 99 -56 79z"/>
<path d="M5757 3168 c-20 -40 -54 -97 -76 -127 -50 -66 -51 -93 -16 -236 14
-55 25 -101 25 -102 0 -2 4 -3 9 -3 5 0 12 24 15 53 9 66 39 186 77 306 30 94
35 171 13 178 -6 2 -27 -29 -47 -69z"/>
<path d="M3795 3091 c-7 -33 11 -1236 20 -1306 8 -63 35 -367 35 -398 0 -16
-4 -26 -8 -23 -17 10 -82 -71 -108 -134 -24 -60 -25 -69 -14 -115 11 -45 9
-56 -10 -108 -30 -81 -113 -201 -161 -234 -99 -68 -125 -91 -141 -122 -18 -35
-10 -71 14 -71 6 0 19 -6 27 -13 25 -20 89 -39 111 -32 11 4 29 0 42 -9 30
-21 66 -20 104 3 27 17 33 17 46 5 26 -27 83 -28 132 -5 38 19 50 32 75 84 20
43 39 68 62 81 19 11 37 24 41 30 11 16 10 87 -4 163 -9 57 -8 83 6 159 15 84
15 96 0 170 -9 43 -21 87 -26 97 -10 20 -5 22 -79 -33 l-34 -25 40 47 c22 26
45 47 51 48 8 0 8 16 2 53 -35 214 -53 410 -88 957 -21 331 -32 417 -80 612
-36 144 -45 164 -55 119z"/>
<path d="M5820 3018 c-59 -219 -73 -323 -100 -768 -24 -389 -43 -611 -67 -762
-15 -97 -15 -109 -1 -120 26 -22 71 -88 59 -88 -6 0 -11 4 -11 9 0 5 -15 18
-32 30 l-33 20 -13 -25 c-7 -14 -19 -60 -27 -102 -11 -67 -11 -88 2 -157 12
-65 13 -95 4 -160 -19 -138 -16 -160 24 -191 19 -14 47 -49 63 -77 54 -100
158 -146 222 -99 23 18 30 19 39 8 18 -21 75 -28 120 -14 23 7 41 17 41 21 0
5 13 6 30 2 37 -8 70 2 70 21 0 8 8 14 19 14 26 0 44 25 37 52 -8 31 -45 70
-111 113 -75 50 -139 124 -180 209 -39 81 -51 139 -37 176 22 58 -89 263 -119
220 -13 -19 -4 162 16 340 17 141 43 1311 31 1373 -4 20 -11 37 -15 37 -5 0
-19 -37 -31 -82z"/>
<path d="M3723 2869 c-94 -280 -100 -409 -38 -740 43 -225 75 -536 75 -716 0
-46 4 -83 8 -83 4 0 16 14 26 31 16 27 17 47 12 192 -4 89 -11 405 -17 702 -6
297 -14 585 -18 640 l-6 100 -42 -126z"/>
<path d="M5881 2523 c-6 -252 -16 -610 -21 -796 -8 -292 -8 -342 5 -367 24
-46 35 -45 35 2 1 177 34 522 72 738 36 208 47 429 28 548 -11 72 -83 308 -99
325 -4 4 -13 -199 -20 -450z"/>
<path d="M4280 2948 c-34 -55 -113 -206 -135 -260 -76 -186 -72 -410 11 -584
14 -30 31 -54 38 -54 19 0 84 117 111 201 32 103 48 228 40 324 -12 162 -39
395 -44 395 -4 0 -13 -10 -21 -22z"/>
<path d="M5341 2858 c-7 -62 -15 -185 -18 -273 -6 -171 7 -275 48 -378 26 -66
87 -159 99 -152 44 27 93 220 94 370 0 133 -17 202 -81 330 -37 74 -120 215
-127 215 -1 0 -8 -51 -15 -112z"/>
<path d="M5610 2940 c0 -11 -5 -17 -13 -15 -17 7 -50 -105 -50 -170 0 -27 10
-93 22 -145 18 -80 24 -154 36 -470 8 -206 15 -406 16 -445 l1 -70 14 65 c31
152 46 316 51 560 6 265 0 345 -37 530 -11 52 -20 114 -22 138 -2 41 -18 61
-18 22z"/>
<path d="M4010 2778 c-31 -157 -34 -194 -38 -393 -2 -122 1 -288 8 -374 12
-153 41 -356 54 -368 3 -3 6 75 6 175 0 207 15 544 31 677 6 50 20 129 31 176
l21 87 -24 76 c-13 41 -30 85 -39 96 -15 20 -18 11 -50 -152z"/>
<path d="M4069 2044 c-17 -215 -19 -591 -3 -617 9 -15 12 -1 17 70 9 137 37
308 68 418 l28 100 -21 35 c-11 19 -32 66 -47 103 l-28 69 -14 -178z"/>
<path d="M5560 2195 c0 -11 -18 -56 -39 -100 l-37 -80 22 -85 c29 -112 52
-248 66 -392 6 -65 14 -118 18 -118 21 0 27 296 10 460 -6 52 -13 142 -16 200
-4 58 -10 112 -15 120 -7 12 -9 11 -9 -5z"/>
<path d="M10453 9815 c-136 -30 -228 -109 -264 -224 -26 -85 -34 -200 -20
-275 12 -66 9 -76 -19 -58 -31 19 -40 14 -40 -19 0 -38 28 -149 42 -166 5 -7
20 -11 31 -10 19 2 23 -6 34 -77 7 -44 22 -102 35 -130 29 -64 31 -199 5 -260
-16 -35 -16 -37 0 -25 25 21 72 127 78 178 11 78 16 101 26 101 27 0 -6 -150
-50 -220 l-15 -25 26 23 c35 32 76 117 91 190 13 65 27 91 27 51 0 -44 -30
-149 -56 -202 -67 -131 -155 -189 -469 -307 -77 -28 -144 -56 -149 -60 -4 -5
10 -21 32 -37 22 -15 81 -57 132 -92 51 -36 106 -78 122 -93 l31 -29 -7 -92
c-7 -104 7 -205 49 -346 44 -145 63 -189 166 -389 55 -105 115 -237 134 -292
18 -54 46 -116 62 -137 l28 -38 -35 29 c-31 26 -35 27 -41 10 -4 -11 -8 -29
-8 -41 -1 -18 5 -22 36 -25 51 -4 56 -28 6 -28 -85 0 -157 -126 -223 -392 -17
-68 -38 -142 -47 -166 -15 -39 -73 -104 -103 -114 -29 -9 3 -49 73 -90 71 -41
190 -151 274 -253 22 -27 44 -47 48 -43 15 14 27 522 26 1083 -1 325 3 730 9
900 16 464 16 486 0 673 -11 142 -11 206 -2 350 13 180 19 222 32 222 22 0 30
-508 9 -675 -6 -52 -6 -179 1 -365 6 -157 13 -460 16 -674 l6 -390 29 35 c15
19 40 72 55 119 14 47 75 180 134 295 108 211 153 321 190 463 34 135 42 213
30 281 -9 50 -8 66 4 89 13 25 130 117 269 211 27 18 45 37 40 41 -4 4 -60 26
-123 50 -159 58 -325 139 -387 188 -28 23 -66 62 -84 88 -35 51 -79 176 -79
224 0 50 17 33 29 -28 12 -62 47 -141 82 -182 23 -27 22 -24 -16 67 -30 73
-37 138 -15 138 10 0 17 -21 26 -75 13 -85 46 -170 76 -197 20 -18 21 -18 13
7 -34 106 -34 200 0 279 13 33 27 79 30 103 15 112 15 110 39 104 21 -5 26 1
45 44 21 49 40 170 27 170 -4 0 -14 -7 -22 -15 -35 -35 -39 -19 -39 133 0 162
-8 203 -55 275 -78 116 -272 180 -437 142z"/>
<path d="M9553 8251 l-93 -16 57 -45 c32 -25 70 -54 86 -64 26 -17 127 -36
197 -37 34 -1 130 23 130 32 0 10 -136 112 -177 133 -38 19 -77 19 -200 -3z"/>
<path d="M11354 8252 c-44 -24 -174 -124 -174 -134 0 -4 9 -8 20 -8 10 0 41
-7 67 -16 36 -12 51 -14 65 -5 10 6 34 11 53 11 71 0 122 21 192 78 l68 56
-35 7 c-164 33 -213 35 -256 11z"/>
<path d="M9255 8171 c-171 -81 -256 -250 -259 -512 -1 -101 0 -107 27 -143
l28 -37 52 46 c29 25 97 81 152 124 55 44 145 120 199 171 54 50 138 118 186
150 115 77 125 100 43 100 -56 0 -102 20 -161 69 -58 49 -89 61 -155 61 -37 0
-70 -9 -112 -29z"/>
<path d="M11662 8189 c-13 -5 -50 -29 -81 -54 -63 -50 -103 -65 -169 -65 -64
0 -53 -23 48 -94 47 -33 119 -92 160 -132 41 -39 140 -123 220 -186 153 -122
218 -181 236 -213 7 -11 14 -18 18 -14 3 3 8 72 12 155 11 246 -30 399 -135
504 -90 90 -225 133 -309 99z m420 -711 c-7 -7 -12 -8 -12 -2 0 14 12 26 19
19 2 -3 -1 -11 -7 -17z"/>
<path d="M9856 8065 c-21 -7 -55 -25 -75 -40 -20 -15 -80 -56 -133 -91 -54
-35 -98 -67 -98 -72 0 -5 12 -19 26 -33 15 -13 48 -55 74 -94 57 -84 133 -156
203 -192 43 -22 69 -28 151 -31 l99 -4 -44 -23 c-24 -12 -70 -37 -102 -55 -32
-17 -81 -38 -110 -46 -107 -28 -242 -11 -317 41 -62 43 -73 23 -40 -72 11 -32
20 -76 20 -99 0 -54 54 -209 137 -394 104 -231 152 -347 193 -466 50 -146 67
-176 143 -256 70 -74 95 -83 139 -48 36 28 54 72 89 212 42 172 54 208 118
338 54 111 56 118 56 195 -1 99 -15 137 -131 345 -95 172 -119 224 -138 314
-8 34 -28 113 -45 176 -20 73 -34 150 -37 210 -7 116 -18 154 -51 180 -30 23
-72 25 -127 5z"/>
<path d="M11129 8065 c-36 -19 -46 -53 -53 -166 -4 -67 -19 -153 -51 -276 -59
-235 -60 -239 -158 -411 -131 -229 -152 -281 -152 -377 0 -76 2 -84 46 -165
64 -118 93 -194 129 -345 65 -277 124 -317 250 -172 59 68 66 83 120 232 31
88 76 203 99 255 169 375 231 539 231 617 1 26 9 73 20 103 21 60 25 100 10
100 -5 0 -25 -13 -43 -30 -47 -41 -141 -64 -232 -57 -83 6 -144 28 -240 85
-38 23 -76 45 -83 49 -8 5 26 8 75 8 78 0 95 3 153 32 75 36 158 113 208 193
19 30 48 69 64 87 17 17 27 36 24 42 -10 16 -257 182 -293 197 -41 18 -91 17
-124 -1z"/>
<path d="M11045 8049 c-4 -6 -5 -12 -2 -15 2 -3 7 2 10 11 7 17 1 20 -8 4z"/>
<path d="M9509 7802 c11 -20 125 -123 186 -167 31 -22 22 -10 -35 50 -106 113
-179 169 -151 117z"/>
<path d="M11549 7787 c-61 -54 -148 -154 -114 -130 73 51 149 120 156 141 11
30 1 27 -42 -11z"/>
<path d="M9459 7768 c-13 -24 -4 -192 12 -237 33 -86 144 -136 293 -129 80 3
101 8 166 40 73 34 74 36 45 43 -167 39 -297 109 -418 228 -44 42 -82 77 -83
77 -2 0 -9 -10 -15 -22z"/>
<path d="M11595 7756 c-28 -37 -146 -130 -232 -185 -56 -35 -174 -80 -210 -81
-62 0 -9 -46 86 -74 30 -9 90 -16 132 -16 104 0 173 26 228 85 23 25 41 47 41
50 0 3 5 49 11 102 8 72 7 103 -2 124 -15 37 -22 36 -54 -5z"/>
<path d="M9380 7683 c0 -37 12 -83 23 -83 6 0 7 16 3 43 -8 46 -26 75 -26 40z"/>
<path d="M11712 7677 c0 -7 -3 -30 -7 -52 l-6 -40 20 35 c11 19 20 40 21 46 0
16 -26 25 -28 11z"/>
<path d="M9350 7657 c0 -7 7 -22 16 -33 14 -17 15 -17 10 -1 -3 10 -6 25 -6
33 0 8 -4 14 -10 14 -5 0 -10 -6 -10 -13z"/>
<path d="M11753 7648 c-23 -30 -24 -41 -2 -21 12 12 20 25 17 28 -3 3 -10 0
-15 -7z"/>
<path d="M9325 7640 c3 -5 11 -10 16 -10 6 0 7 5 4 10 -3 6 -11 10 -16 10 -6
0 -7 -4 -4 -10z"/>
<path d="M11754 7601 c-45 -28 -55 -45 -70 -123 -33 -174 -13 -208 147 -252
104 -29 169 -96 210 -215 11 -30 31 -117 44 -193 27 -148 38 -183 62 -211 25
-27 33 -4 33 100 0 78 -39 445 -56 523 -23 104 -48 154 -111 221 -72 76 -142
131 -195 153 -31 13 -38 13 -64 -3z"/>
<path d="M9233 7573 c-92 -70 -163 -138 -193 -183 -39 -60 -55 -132 -89 -405
-27 -205 -29 -240 -19 -325 6 -52 13 -151 17 -220 5 -102 9 -125 21 -125 33 0
92 150 106 269 l6 51 -22 -32 c-12 -18 -26 -33 -30 -33 -14 0 -20 31 -10 50 5
10 14 59 20 110 11 97 8 137 -4 53 -11 -76 -36 -165 -53 -187 -14 -20 -14 -19
-8 14 3 19 12 62 20 95 8 33 23 111 35 174 43 230 108 315 275 362 35 9 72 22
84 28 33 18 54 68 48 115 -20 151 -37 193 -83 214 -42 20 -70 14 -121 -25z"/>
<path d="M9000 7488 c0 -26 5 -50 12 -54 13 -8 42 27 29 35 -4 3 -15 20 -24
36 l-16 30 -1 -47z"/>
<path d="M9414 7270 c-18 -15 -61 -37 -98 -50 -110 -36 -110 -36 -112 -186 -1
-142 -10 -185 -64 -320 -46 -111 -66 -192 -53 -205 14 -14 115 71 192 161 69
79 112 158 135 246 22 78 47 322 38 356 l-7 26 -31 -28z"/>
<path d="M11646 7278 c-3 -13 -1 -75 5 -138 25 -270 60 -350 229 -522 64 -65
122 -118 129 -118 22 0 5 83 -39 191 -59 145 -70 196 -70 339 0 69 -4 130 -8
136 -10 15 -56 38 -120 59 -30 9 -69 30 -87 46 l-33 29 -6 -22z"/>
<path d="M9147 6914 c-10 -41 -38 -119 -63 -173 -49 -109 -55 -137 -24 -106
35 36 121 307 109 344 -2 6 -12 -24 -22 -65z"/>
<path d="M12003 6965 c2 -11 16 -65 30 -120 38 -150 60 -256 53 -262 -12 -12
-38 9 -52 43 -8 20 -17 34 -19 32 -7 -6 32 -183 55 -252 21 -65 50 -103 69
-91 7 4 11 53 11 129 0 117 -1 125 -29 177 -17 30 -46 117 -66 194 -21 77 -41
147 -47 155 -7 12 -8 11 -5 -5z"/>
<path d="M9071 6929 c-7 -22 -11 -43 -8 -45 2 -2 9 14 16 37 7 22 11 43 8 45
-2 2 -9 -14 -16 -37z"/>
<path d="M11944 6931 c8 -76 66 -243 97 -281 25 -29 29 -31 29 -14 0 12 -11
38 -25 58 -41 61 -56 95 -81 190 -16 59 -23 76 -20 47z"/>
<path d="M9051 6854 c0 -11 3 -14 6 -6 3 7 2 16 -1 19 -3 4 -6 -2 -5 -13z"/>
<path d="M10611 6771 l-30 -28 3 -324 c5 -420 17 -779 27 -779 4 0 29 26 56
58 86 103 187 197 248 231 104 58 118 83 65 114 -48 29 -79 96 -122 264 -42
167 -93 290 -148 356 -28 33 -37 37 -78 37 -44 1 -46 2 -28 15 11 8 30 15 43
15 24 0 27 9 17 48 -8 29 -16 28 -53 -7z"/>
<path d="M8853 6703 c-134 -192 -178 -366 -187 -740 -3 -130 -1 -223 4 -223
19 0 53 154 85 380 9 63 23 142 31 174 17 64 88 231 110 257 16 17 20 174 6
197 -6 9 -21 -4 -49 -45z"/>
<path d="M12200 6664 c0 -76 4 -105 14 -113 42 -35 115 -282 136 -456 22 -188
60 -355 81 -355 12 0 11 292 -1 435 -5 61 -18 151 -30 200 -24 104 -111 289
-164 350 l-35 40 -1 -101z"/>
<path d="M9208 6545 c-43 -40 -78 -79 -78 -86 0 -8 7 -46 15 -84 19 -91 19
-177 -1 -272 -14 -69 -62 -208 -69 -201 -2 2 10 42 25 90 34 102 54 235 45
298 -9 72 -26 140 -35 140 -4 0 -18 -24 -30 -54 -12 -30 -37 -73 -56 -95 -31
-36 -38 -55 -65 -188 -16 -81 -43 -197 -60 -258 -42 -154 -149 -467 -167 -487
-18 -22 -68 -24 -76 -3 -3 9 0 15 9 15 44 0 181 407 255 758 l22 103 -26 58
c-21 48 -26 74 -27 147 l-1 89 -29 -63 c-47 -100 -76 -218 -99 -398 -31 -244
-56 -401 -89 -554 -16 -74 -30 -130 -30 -125 0 6 4 62 10 125 5 63 7 135 3
160 l-6 45 -29 -100 c-16 -55 -41 -147 -55 -205 -15 -58 -31 -114 -36 -125 -6
-11 -39 -50 -75 -87 -59 -62 -72 -83 -129 -218 -10 -24 -39 -71 -62 -103 -29
-39 -40 -63 -34 -69 20 -20 70 3 117 53 46 49 81 62 91 34 3 -8 -1 -47 -10
-87 -9 -40 -21 -122 -26 -181 -11 -114 -5 -161 26 -206 l17 -23 22 25 c18 22
24 48 34 154 14 144 19 169 32 156 5 -5 2 -57 -7 -123 -26 -201 -29 -283 -10
-299 14 -12 20 -11 40 8 30 28 41 71 66 244 21 153 45 221 36 102 -4 -38 -13
-101 -21 -140 -20 -93 -19 -141 1 -149 41 -16 65 38 89 189 25 168 28 179 48
183 22 5 22 -15 -3 -106 -11 -39 -20 -85 -20 -102 0 -25 4 -30 24 -30 27 0 36
19 61 120 9 36 32 115 53 175 46 140 47 195 4 325 -42 127 -46 158 -32 226 21
103 81 276 132 379 46 95 47 98 17 65 -110 -123 -149 -206 -185 -397 -18 -95
-39 -157 -61 -174 -20 -17 -17 4 7 51 11 22 36 106 56 187 20 82 47 169 61
195 23 42 108 152 183 236 36 41 112 178 146 263 35 91 54 195 54 301 0 51 4
109 10 127 5 19 9 36 7 37 -1 1 -37 -31 -79 -71z"/>
<path d="M11828 6497 c4 -145 23 -247 65 -351 34 -84 124 -256 133 -256 2 0
-2 12 -9 28 -19 36 -54 147 -62 195 -11 69 -7 201 10 271 19 82 18 85 -80 172
l-60 52 3 -111z"/>
<path d="M11343 6483 c-47 -119 -47 -125 -9 -149 l33 -21 9 123 c5 68 6 124 3
124 -3 0 -20 -35 -36 -77z"/>
<path d="M9726 6500 c3 -30 9 -85 12 -122 l7 -66 30 23 29 24 -18 53 c-11 29
-29 73 -42 98 l-23 45 5 -55z"/>
<path d="M12218 6424 c-3 -67 -10 -101 -26 -132 -30 -59 -28 -109 13 -284 49
-210 169 -571 211 -635 41 -64 45 13 9 161 -13 55 -42 232 -65 391 -42 305
-77 470 -115 544 l-22 45 -5 -90z"/>
<path d="M11986 6410 c-33 -97 -35 -231 -6 -346 24 -95 76 -204 124 -260 69
-81 137 -189 155 -249 11 -33 29 -108 41 -165 12 -58 30 -122 41 -143 l19 -38
-20 11 c-28 15 -39 48 -51 145 -19 157 -54 241 -151 370 -84 110 -84 110 -42
20 84 -182 154 -398 154 -477 0 -22 -16 -87 -37 -146 -48 -139 -48 -184 0
-327 20 -60 45 -148 57 -194 11 -46 25 -90 31 -97 11 -13 42 -14 54 -2 3 3 -6
52 -20 108 -18 70 -23 106 -16 113 18 18 41 -12 41 -54 0 -55 29 -226 44 -263
16 -39 39 -58 59 -50 24 9 24 29 0 169 -25 144 -28 185 -13 185 10 0 13 -13
40 -204 21 -146 42 -212 72 -222 43 -13 52 33 33 161 -21 144 -29 265 -17 265
14 0 20 -31 27 -140 8 -126 15 -167 24 -151 6 9 10 7 14 -8 8 -30 24 -26 44
12 24 43 21 193 -6 342 -18 96 -19 112 -6 124 13 13 23 7 79 -47 50 -49 71
-62 95 -62 17 0 31 5 31 11 0 6 -16 34 -36 61 -20 27 -56 95 -81 151 -37 87
-54 112 -117 177 -71 73 -73 77 -95 165 -25 102 -92 338 -97 344 -3 3 -1 -68
2 -156 8 -191 5 -213 -35 -213 -15 0 -36 9 -46 20 -40 44 -197 549 -235 758
-21 114 -25 127 -66 181 -24 33 -44 63 -44 67 0 5 -9 22 -20 39 -14 21 -20 25
-24 15z m459 -1260 c3 -5 1 -10 -4 -10 -6 0 -11 5 -11 10 0 6 2 10 4 10 3 0 8
-4 11 -10z"/>
<path d="M9762 6301 c-17 -17 -32 -34 -32 -40 0 -5 -3 -17 -7 -27 -5 -14 -1
-13 25 6 24 18 38 21 65 16 l36 -7 -16 41 c-9 22 -21 40 -27 40 -6 0 -26 -13
-44 -29z"/>
<path d="M11270 6291 l-20 -41 30 6 c20 5 40 0 66 -15 20 -12 39 -20 42 -17 8
9 -63 101 -81 104 -10 2 -23 -11 -37 -37z"/>
<path d="M9768 6234 c-41 -22 -64 -78 -71 -169 -5 -63 -4 -75 5 -55 17 38 43
88 82 160 20 36 36 68 36 73 0 11 -22 8 -52 -9z"/>
<path d="M11296 6223 c3 -16 10 -41 15 -58 l9 -30 -34 38 c-18 20 -38 37 -45
37 -20 0 -11 -29 15 -47 14 -10 44 -33 65 -52 40 -35 52 -33 22 3 -17 20 -17
20 0 7 21 -17 46 -58 28 -47 -17 11 -13 0 15 -41 l27 -38 -7 78 c-7 90 -18
117 -66 152 -43 32 -52 32 -44 -2z"/>
<path d="M9837 6213 c-4 -3 -7 -16 -7 -28 0 -13 -7 -28 -15 -35 -27 -22 -16
-32 16 -13 45 26 52 38 39 62 -11 22 -22 26 -33 14z"/>
<path d="M9890 6169 c0 -8 -19 -25 -42 -39 -61 -37 -108 -88 -136 -148 -28
-62 -22 -76 28 -62 19 6 71 14 114 20 97 12 126 33 126 92 0 22 -6 51 -14 66
-19 37 -76 90 -76 71z"/>
<path d="M11182 6154 c-31 -21 -64 -90 -64 -132 0 -54 25 -71 120 -82 45 -5
100 -14 123 -20 45 -12 63 -2 51 29 -16 47 -98 139 -173 194 -33 25 -37 25
-57 11z"/>
<path d="M10000 6011 c0 -10 -11 -35 -25 -55 l-24 -36 37 0 c61 0 79 35 46 85
-19 30 -34 32 -34 6z"/>
<path d="M11067 6003 c-22 -25 -22 -60 1 -71 9 -5 35 -13 56 -16 l39 -8 -31
27 c-18 15 -35 40 -40 57 -7 29 -8 29 -25 11z"/>
<path d="M9719 5875 c-20 -11 -28 -24 -32 -57 -3 -23 -5 -44 -4 -45 1 -1 16
25 33 58 17 32 31 59 30 59 0 -1 -13 -7 -27 -15z"/>
<path d="M9858 5864 c-62 -19 -111 -68 -129 -130 -15 -51 -19 -283 -6 -317 6
-15 17 -6 65 50 120 139 239 231 390 300 42 19 79 37 81 39 10 10 -35 44 -77
58 -60 21 -258 21 -324 0z"/>
<path d="M10920 5864 c-37 -16 -70 -42 -70 -55 0 -4 43 -28 96 -53 149 -71
277 -172 388 -309 38 -47 40 -48 48 -26 5 12 9 82 9 156 0 113 -3 140 -21 180
-46 105 -86 123 -275 122 -102 0 -149 -4 -175 -15z"/>
<path d="M11378 5857 c11 -12 25 -33 31 -47 10 -25 10 -25 10 7 1 34 -20 63
-46 63 -14 0 -13 -4 5 -23z"/>
<path d="M10175 5747 c-250 -123 -426 -301 -462 -470 -21 -101 -13 -207 22
-286 51 -113 148 -170 304 -179 147 -8 282 23 384 87 96 62 119 169 96 452
-11 129 -21 195 -33 221 -10 20 -59 80 -109 133 l-92 96 -110 -54z"/>
<path d="M10719 5697 c-51 -56 -99 -118 -106 -137 -21 -47 -46 -328 -38 -423
7 -99 36 -177 79 -215 41 -36 161 -86 244 -102 100 -20 246 -9 317 24 83 37
116 66 148 124 59 108 59 280 1 400 -34 69 -182 224 -276 289 -77 53 -176 106
-240 129 l-38 13 -91 -102z"/>
<path d="M9627 5500 c-65 -256 -128 -545 -152 -708 -18 -122 -31 -380 -18
-367 13 13 139 327 169 420 13 39 23 62 24 53 0 -10 -33 -111 -74 -225 -40
-115 -84 -248 -96 -297 -20 -81 -21 -97 -11 -185 19 -168 74 -521 80 -515 3 3
9 175 12 382 6 339 8 383 26 437 29 88 85 194 142 268 28 37 51 70 51 74 0 4
-15 23 -34 43 -83 86 -112 199 -82 328 11 50 16 115 15 224 -2 233 -7 240 -52
68z m30 -572 c-3 -7 -5 -2 -5 12 0 14 2 19 5 13 2 -7 2 -19 0 -25z"/>
<path d="M11437 5633 c-3 -4 -8 -73 -12 -153 -5 -111 -3 -165 9 -230 9 -49 15
-134 14 -200 0 -63 -3 -102 -5 -86 -5 29 -5 28 -33 -21 -16 -28 -43 -62 -59
-76 -17 -14 -31 -28 -31 -32 0 -3 25 -35 56 -72 31 -36 74 -103 95 -147 65
-136 71 -176 76 -576 3 -195 8 -358 12 -363 9 -9 70 413 78 539 5 73 1 106
-17 179 -20 82 -37 132 -131 388 -16 43 -29 86 -28 95 0 9 17 -30 38 -88 21
-58 53 -139 71 -180 17 -41 43 -104 56 -140 l25 -65 -5 175 c-5 175 -27 340
-77 564 -23 106 -120 489 -124 494 -2 2 -5 0 -8 -5z m20 -725 c-3 -8 -6 -5 -6
6 -1 11 2 17 5 13 3 -3 4 -12 1 -19z"/>
<path d="M10250 4785 c-30 -8 -91 -17 -134 -21 -54 -5 -85 -13 -96 -24 -22
-22 -27 -73 -66 -655 l-6 -90 61 -122 c62 -123 77 -164 40 -105 -34 52 -33 30
1 -55 18 -43 40 -105 50 -138 l17 -60 12 41 c24 90 31 152 29 297 -1 138 3
174 41 392 57 327 68 376 102 469 16 44 29 81 29 83 0 5 -23 2 -80 -12z"/>
<path d="M10780 4791 c0 -6 11 -39 24 -73 32 -87 49 -165 101 -475 42 -245 45
-279 43 -417 -1 -116 3 -170 17 -234 10 -46 21 -79 25 -75 4 4 12 32 18 61 7
30 26 85 42 122 36 81 41 122 9 72 l-21 -32 -19 24 c-10 13 -19 28 -19 33 0 4
7 -1 15 -11 21 -28 33 -13 94 113 l53 110 -11 138 c-7 76 -18 232 -26 346 -18
255 -23 266 -105 267 -25 0 -76 7 -115 16 -38 8 -82 17 -97 21 -17 3 -28 1
-28 -6z"/>
<path d="M9793 4761 c-78 -56 -153 -197 -184 -344 -22 -105 -27 -368 -9 -517
21 -182 4 -381 -60 -673 -11 -50 -20 -92 -20 -94 0 -2 31 30 70 70 38 39 81
95 94 123 14 28 56 172 95 320 38 148 83 323 100 388 33 124 51 263 72 550
l13 169 -23 18 c-36 29 -100 25 -148 -10z"/>
<path d="M11173 4778 c-13 -6 -24 -18 -25 -27 -4 -45 31 -468 47 -561 16 -96
175 -727 205 -814 23 -69 62 -125 133 -195 l55 -54 -18 84 c-36 162 -72 405
-72 494 -1 50 5 148 12 218 18 176 9 425 -19 532 -31 117 -75 200 -146 272
-57 59 -64 63 -105 62 -25 0 -55 -5 -67 -11z"/>
<path d="M11176 3938 c-9 -14 -34 -66 -54 -114 l-37 -89 1 -155 c2 -140 1
-146 -6 -64 -4 51 -12 100 -18 110 -9 16 -11 14 -25 -13 -9 -16 -21 -59 -28
-94 -11 -62 -10 -70 32 -234 l44 -170 5 155 6 155 3 -170 c2 -93 6 -183 10
-200 7 -29 8 -27 44 45 38 80 86 257 88 325 0 22 4 49 9 60 25 59 -1 -192 -30
-291 -12 -38 -41 -109 -65 -159 -56 -111 -77 -237 -78 -460 0 -238 43 -406
107 -413 40 -5 105 65 141 154 25 61 28 81 27 174 -1 185 -78 566 -124 612
-10 10 -14 18 -8 18 20 0 44 -55 80 -186 l37 -136 6 55 c9 69 58 206 97 270
33 53 31 64 -14 106 -29 27 -29 27 -44 -14 -9 -26 -10 -22 -5 26 4 42 0 73
-15 120 -19 56 -54 194 -123 472 -10 43 -25 90 -33 104 l-13 26 -17 -25z m71
-250 c-2 -13 -4 -5 -4 17 -1 22 1 32 4 23 2 -10 2 -28 0 -40z m120 -545 c-3
-10 -5 -4 -5 12 0 17 2 24 5 18 2 -7 2 -21 0 -30z m-10 -110 c-2 -16 -4 -3 -4
27 0 30 2 43 4 28 2 -16 2 -40 0 -55z"/>
<path d="M9891 3918 c-6 -18 -36 -132 -66 -253 -31 -121 -68 -258 -81 -304
l-24 -85 19 -95 c28 -135 34 -202 22 -231 -8 -20 -10 -12 -10 46 -1 101 -31
255 -49 253 -4 0 -20 -16 -36 -36 l-30 -35 28 -50 c37 -66 87 -211 93 -270 3
-27 9 -48 14 -48 5 0 9 7 9 16 0 22 42 165 47 160 3 -2 -3 -28 -12 -58 -28
-95 -59 -319 -59 -438 -1 -109 1 -119 30 -181 66 -138 142 -186 184 -117 58
95 77 402 41 643 -19 126 -25 146 -61 207 -22 37 -45 70 -50 73 -5 3 -19 -9
-30 -27 -11 -18 -20 -29 -20 -25 0 15 29 65 40 69 7 2 4 32 -10 88 -12 53 -22
133 -24 215 -5 123 -4 125 4 43 16 -153 47 -276 90 -366 22 -47 43 -82 47 -79
3 4 10 160 14 347 l9 341 -25 71 c-27 76 -70 158 -85 158 -4 0 -13 -15 -19
-32z m-34 -270 c-2 -18 -4 -6 -4 27 0 33 2 48 4 33 2 -15 2 -42 0 -60z"/>
<path d="M10046 3621 c-14 -22 -26 -187 -25 -341 1 -85 4 -146 6 -135 3 11 22
85 43 165 38 145 38 146 24 210 -18 75 -38 118 -48 101z"/>
<path d="M9567 3115 c-52 -40 -84 -100 -140 -260 -53 -152 -71 -252 -71 -395
-1 -153 15 -209 68 -234 44 -21 71 -20 121 3 81 37 131 124 165 291 19 90 21
127 17 260 -4 112 -11 174 -25 222 -19 66 -64 148 -81 148 -4 0 -29 -16 -54
-35z"/>
<path d="M11447 3108 c-86 -133 -101 -405 -36 -646 48 -181 140 -271 247 -242
75 20 101 78 102 226 0 45 -7 121 -15 170 -16 89 -77 281 -122 384 -25 58
-107 150 -133 150 -8 0 -28 -19 -43 -42z"/>
<path d="M11380 2357 c0 -7 -23 -58 -51 -113 l-50 -99 5 -90 c3 -49 23 -216
45 -370 42 -298 58 -437 41 -356 -14 65 -20 62 -20 -10 0 -35 -9 -106 -20
-158 -24 -112 -24 -141 -5 -205 21 -68 19 -142 -6 -212 -30 -86 -30 -146 0
-178 31 -33 78 -48 152 -48 50 0 75 8 166 51 95 44 120 51 205 60 105 10 140
26 163 72 14 26 13 29 -11 48 -15 12 -34 21 -43 21 -58 0 -168 86 -216 168
-23 39 -28 40 -44 6 -23 -51 -24 -106 -3 -159 32 -82 35 -93 18 -65 -9 14 -25
49 -36 79 l-21 54 21 80 c24 92 22 109 -28 222 -47 106 -48 80 24 644 14 106
23 195 21 197 -5 5 -61 -247 -102 -456 -26 -132 -39 -227 -44 -332 -7 -150
-20 -210 -22 -102 -4 188 16 345 91 726 33 167 60 309 60 316 0 6 -12 12 -26
12 -82 0 -170 61 -223 155 -32 56 -41 65 -41 42z m17 -1139 c-3 -8 -6 -5 -6 6
-1 11 2 17 5 13 3 -3 4 -12 1 -19z m32 -123 c-2 -17 -27 69 -27 90 0 11 6 -2
14 -30 7 -27 13 -54 13 -60z"/>
<path d="M9690 2320 c-43 -83 -147 -160 -218 -160 -26 0 -32 -4 -32 -21 0 -12
24 -141 54 -288 83 -406 114 -632 100 -740 -10 -79 -20 -42 -28 104 -4 66 -14
165 -22 220 -15 106 -102 507 -111 515 -8 7 3 -105 38 -379 36 -286 36 -319 3
-396 -63 -149 -61 -136 -36 -233 24 -94 23 -104 -18 -196 -14 -31 -21 -62 -18
-86 2 -21 0 -36 -4 -34 -16 10 -7 84 17 136 29 62 31 118 7 173 l-18 39 -31
-45 c-46 -66 -113 -124 -169 -144 -101 -37 -114 -44 -114 -60 0 -25 57 -73 98
-84 21 -5 79 -15 131 -21 60 -7 103 -17 120 -29 72 -51 135 -74 201 -74 72 1
113 14 148 45 29 28 29 81 1 168 -26 81 -28 156 -4 243 17 64 17 70 0 149 -10
46 -21 124 -25 173 l-6 90 -14 -62 c-8 -34 -15 -61 -17 -59 -2 2 16 145 41
317 25 173 50 368 57 435 l12 121 -54 111 c-30 61 -57 111 -61 112 -4 0 -17
-18 -28 -40z m15 -1162 c-7 -43 -24 -85 -25 -61 0 17 23 103 28 103 2 0 1 -19
-3 -42z"/>
<path d="M9845 2067 c-3 -34 -15 -129 -25 -212 -10 -82 -21 -179 -24 -215 -5
-63 -4 -61 24 48 16 63 47 173 69 245 50 164 51 173 28 169 -10 -2 -29 4 -42
12 l-23 15 -7 -62z"/>
<path d="M11210 2107 c-19 -6 -36 -11 -38 -13 -4 -2 44 -170 53 -184 3 -6 26
-88 50 -183 48 -189 53 -191 30 -12 -22 167 -45 367 -45 388 0 19 -1 19 -50 4z"/>
</g>
</svg>
